<?xml version="1.0" ?><!DOCTYPE svg  PUBLIC '-//W3C//DTD SVG 1.1//EN'  'http://www.w3.org/Graphics/SVG/1.1/DTD/svg11.dtd'><svg enable-background="new 0 0 512 512" height="512px" version="1.1" viewBox="0 0 512 512" width="512px" xml:space="preserve" xmlns="http://www.w3.org/2000/svg" xmlns:xlink="http://www.w3.org/1999/xlink"><g><g id="Vector"/><g id="Clock"/><g id="Consultation"/><g id="HQ"/><g id="Camera"/><g id="Coffee"/><g id="Layer_1"><g><defs><rect height="450.001" id="SVGID_19_" width="450.001" x="28" y="28.999"/></defs><clipPath id="SVGID_2_"><use overflow="visible" xlink:href="#SVGID_19_"/></clipPath><g clip-path="url(#SVGID_2_)"><g><path d="M450.5,396.5h-395C40.337,396.5,28,384.163,28,369V169c0-15.163,12.337-27.5,27.5-27.5h395        c15.163,0,27.5,12.337,27.5,27.5v200C478,384.163,465.663,396.5,450.5,396.5z M55.5,156.5c-6.893,0-12.5,5.607-12.5,12.5v200        c0,6.893,5.607,12.5,12.5,12.5h395c6.893,0,12.5-5.607,12.5-12.5V169c0-6.893-5.607-12.5-12.5-12.5H55.5z" fill="#FBB040"/></g><g><path d="M253,329.009c-7.579,0-14.749-2.479-20.189-6.981L46.126,167.529        c-9.063-7.5-8.452-14.073-7.281-17.324S43.735,141.5,55.5,141.5h395c11.765,0,15.484,5.454,16.655,8.705        s1.781,9.824-7.282,17.324L273.19,322.027C267.749,326.529,260.579,329.009,253,329.009z M56.327,156.5l186.047,153.971        c2.716,2.248,6.59,3.538,10.626,3.538s7.91-1.29,10.627-3.538L449.673,156.5H56.327z" fill="#FBB040"/></g><g><path d="M43.004,389c-2.149,0-4.282-0.919-5.766-2.698c-2.651-3.183-2.222-7.912,0.96-10.563l135-112.5        c3.184-2.651,7.911-2.22,10.563,0.96c2.651,3.183,2.222,7.912-0.96,10.563l-135,112.5C46.399,388.43,44.696,389,43.004,389z" fill="#FBB040"/></g><g><path d="M462.996,389c-1.693,0-3.396-0.569-4.798-1.738l-135-112.5c-3.182-2.651-3.611-7.381-0.96-10.563        c2.653-3.182,7.382-3.611,10.563-0.96l135,112.5c3.182,2.651,3.611,7.381,0.96,10.563        C467.278,388.081,465.145,389,462.996,389z" fill="#FBB040"/></g><g><path d="M237.994,276.5c-1.565,0-3.145-0.488-4.494-1.5l-30-22.5c-3.313-2.485-3.985-7.187-1.5-10.5        c2.484-3.313,7.185-3.985,10.5-1.5l30,22.5c3.313,2.485,3.985,7.187,1.5,10.5C242.526,275.465,240.274,276.5,237.994,276.5z" fill="#FBB040"/></g><g><path d="M177.994,231.5c-1.565,0-3.145-0.488-4.494-1.5l-60-45c-3.313-2.485-3.985-7.187-1.5-10.5        s7.186-3.985,10.5-1.5l60,45c3.313,2.485,3.985,7.187,1.5,10.5C182.526,230.465,180.274,231.5,177.994,231.5z" fill="#FBB040"/></g></g></g></g></g></svg>