<?xml version="1.0" encoding="iso-8859-1"?>
<!-- Uploaded to: SVG Repo, www.svgrepo.com, Generator: SVG Repo Mixer Tools -->
<svg height="800px" width="800px" version="1.1" id="Layer_1" xmlns="http://www.w3.org/2000/svg" xmlns:xlink="http://www.w3.org/1999/xlink" 
	 viewBox="0 0 512 512" xml:space="preserve">
<g>
	<path style="fill:#FFC61B;" d="M60.76,139.885c-7.812,0-14.144-6.332-14.144-14.144V60.76c0-7.812,6.332-14.144,14.144-14.144
		h64.98c7.812,0,14.144,6.332,14.144,14.144s-6.332,14.144-14.144,14.144H74.903v50.837
		C74.903,133.553,68.571,139.885,60.76,139.885z"/>
	<path style="fill:#FFC61B;" d="M451.239,465.384H386.26c-7.81,0-14.144-6.332-14.144-14.144s6.334-14.144,14.144-14.144h50.835
		V386.26c0-7.812,6.334-14.144,14.144-14.144c7.81,0,14.144,6.332,14.144,14.144v64.98
		C465.383,459.05,459.05,465.384,451.239,465.384z"/>
	<path style="fill:#FFC61B;" d="M497.856,512H14.144C6.332,512,0,505.668,0,497.856V14.144C0,6.332,6.332,0,14.144,0h483.713
		C505.667,0,512,6.332,512,14.144v483.713C512,505.668,505.667,512,497.856,512z M28.287,483.713h455.425V28.287H28.287V483.713z"/>
</g>
<path style="fill:#FEE187;" d="M381.979,280.651L381.979,280.651c1.554-7.978,2.378-16.219,2.378-24.651
	c0-70.888-57.466-128.354-128.354-128.354c-8.434,0-16.677,0.822-24.657,2.372c-10.968-6.42-23.726-10.111-37.353-10.111
	c-40.918,0-74.087,33.17-74.087,74.087c0,13.623,3.696,26.382,10.116,37.353c-1.55,7.98-2.372,16.219-2.372,24.652
	c0,70.888,57.466,128.354,128.355,128.354c8.432,0,16.673-0.822,24.651-2.378c10.968,6.42,23.727,10.117,37.353,10.117
	c29.754,0,55.411-17.54,67.196-42.841"/>
<g>
	<path style="fill:#FFC61B;" d="M318.007,406.237c-13.837,0-27.478-3.263-39.768-9.476c-7.343,1.153-14.801,1.737-22.237,1.737
		c-78.574,0-142.497-63.924-142.497-142.497c0-7.428,0.583-14.885,1.735-22.235c-6.215-12.294-9.478-25.935-9.478-39.771
		c0-48.65,39.58-88.231,88.229-88.231c13.844,0,27.485,3.262,39.772,9.473c7.349-1.151,14.807-1.734,22.238-1.734
		c78.572,0,142.497,63.924,142.497,142.497c0,9.172-0.888,18.377-2.638,27.357c-1.495,7.669-8.929,12.676-16.589,11.176
		c-7.667-1.495-12.671-8.922-11.176-16.589c1.404-7.202,2.116-14.586,2.116-21.945c0-62.975-51.234-114.21-114.21-114.21
		c-7.356,0-14.743,0.71-21.958,2.113c-3.376,0.655-6.875,0.059-9.843-1.679c-9.135-5.348-19.582-8.174-30.209-8.174
		c-33.052,0-59.942,26.89-59.942,59.944c0,10.619,2.829,21.067,8.179,30.211c1.737,2.967,2.332,6.465,1.677,9.841
		c-1.402,7.217-2.113,14.603-2.113,21.954c0,62.975,51.235,114.21,114.21,114.21c7.36,0,14.742-0.711,21.947-2.116
		c3.378-0.658,6.878-0.062,9.85,1.676c9.141,5.351,19.588,8.179,30.208,8.179c23.221,0,44.565-13.609,54.375-34.67
		c3.297-7.08,11.707-10.149,18.793-6.85c7.08,3.298,10.147,11.712,6.848,18.793C383.59,386.212,352.181,406.237,318.007,406.237z"/>
	<path style="fill:#FFC61B;" d="M214.415,281.118c3.81,0,7.3,2.31,8.623,5.882c0.834,2.254,1.873,4.318,3.113,6.189
		c2.249,3.396,4.996,6.219,8.239,8.468c3.243,2.25,6.884,3.909,10.927,4.977c4.042,1.069,8.314,1.602,12.816,1.602
		c4.577,0,8.754-0.458,12.531-1.373c3.775-0.915,7.017-2.232,9.727-3.948c2.707-1.717,4.785-3.813,6.236-6.294
		c1.448-2.479,2.174-5.244,2.174-8.297c0-3.049-0.707-5.683-2.116-7.895c-1.413-2.212-3.72-4.157-6.923-5.836
		c-3.205-1.676-7.4-3.242-12.586-4.691c-5.188-1.448-11.557-2.974-19.109-4.577c-8.621-1.832-16.059-4.024-22.313-6.58
		c-6.257-2.554-11.386-5.568-15.39-9.039c-4.005-3.471-6.963-7.495-8.869-12.073c-1.907-4.577-2.86-9.84-2.86-15.79
		c0-6.331,1.334-12.188,4.004-17.565c2.67-5.379,6.427-10.012,11.272-13.903c4.844-3.891,10.659-6.923,17.45-9.097
		c6.789-2.174,14.303-3.262,22.542-3.262c8.239,0,15.791,1.088,22.655,3.262c6.867,2.174,12.874,5.283,18.023,9.326
		c5.15,4.044,9.287,9.022,12.415,14.931c1.297,2.452,2.383,5.034,3.262,7.742c1.953,6.028-2.462,12.227-8.799,12.227h-9.458
		c-3.711,0-7.08-2.212-8.516-5.635c-4.441-10.585-14.036-15.878-28.781-15.878c-9.155,0-16.155,1.544-20.999,4.635
		c-4.844,3.089-7.266,7.305-7.266,12.643c0,2.215,0.533,4.14,1.602,5.779c1.066,1.642,2.762,3.129,5.092,4.462
		c2.327,1.337,5.3,2.574,8.925,3.718c3.622,1.144,8.028,2.25,13.216,3.318c4.501,0.991,9.134,2.041,13.903,3.147
		c4.765,1.106,9.421,2.461,13.96,4.062c4.539,1.602,8.828,3.53,12.874,5.779c4.042,2.25,7.589,5.017,10.642,8.295
		c3.051,3.281,5.454,7.134,7.209,11.558c1.755,4.426,2.634,9.574,2.634,15.448c0,6.943-1.431,13.294-4.293,19.053
		c-2.86,5.761-6.847,10.718-11.957,14.875c-5.113,4.158-11.156,7.4-18.138,9.727c-6.98,2.327-14.629,3.489-22.942,3.489
		c-10.374,0-19.491-1.279-27.348-3.833c-7.858-2.554-14.475-6.16-19.853-10.814c-5.379-4.652-9.575-10.222-12.586-16.706
		c-1.462-3.144-2.649-6.451-3.564-9.919c-1.544-5.86,2.928-11.594,8.988-11.594h9.613V281.118z"/>
</g>
</svg>